<mxfile host="app.diagrams.net" modified="2024-03-25T06:59:48.949Z" agent="Mozilla/5.0 (Windows NT 10.0; Win64; x64) AppleWebKit/537.36 (KHTML, like Gecko) Chrome/122.0.0.0 Safari/537.36" etag="q2_WUwN24NuIcJIbbePg" version="24.1.0" type="github">
  <diagram name="第 1 页" id="vgzTifWpOvMfW7XHTrq7">
    <mxGraphModel dx="2089" dy="790" grid="1" gridSize="10" guides="1" tooltips="1" connect="1" arrows="1" fold="1" page="1" pageScale="1" pageWidth="827" pageHeight="1169" math="0" shadow="0">
      <root>
        <mxCell id="0" />
        <mxCell id="1" parent="0" />
        <mxCell id="oQk5PW6BRJyfj6045QY_-1" value="Simu" style="rounded=0;whiteSpace=wrap;html=1;" vertex="1" parent="1">
          <mxGeometry x="19" y="1300" width="120" height="60" as="geometry" />
        </mxCell>
        <mxCell id="oQk5PW6BRJyfj6045QY_-12" value="" style="rounded=0;orthogonalLoop=1;jettySize=auto;html=1;" edge="1" parent="1" source="oQk5PW6BRJyfj6045QY_-2" target="oQk5PW6BRJyfj6045QY_-11">
          <mxGeometry relative="1" as="geometry" />
        </mxCell>
        <mxCell id="oQk5PW6BRJyfj6045QY_-2" value="A2" style="ellipse;whiteSpace=wrap;html=1;" vertex="1" parent="1">
          <mxGeometry x="107" y="2080" width="70" height="40" as="geometry" />
        </mxCell>
        <mxCell id="oQk5PW6BRJyfj6045QY_-8" value="" style="rounded=0;orthogonalLoop=1;jettySize=auto;html=1;" edge="1" parent="1" source="oQk5PW6BRJyfj6045QY_-4" target="oQk5PW6BRJyfj6045QY_-7">
          <mxGeometry relative="1" as="geometry" />
        </mxCell>
        <mxCell id="oQk5PW6BRJyfj6045QY_-4" value="A" style="ellipse;whiteSpace=wrap;html=1;" vertex="1" parent="1">
          <mxGeometry x="58" y="1980" width="70" height="40" as="geometry" />
        </mxCell>
        <mxCell id="oQk5PW6BRJyfj6045QY_-10" value="" style="rounded=0;orthogonalLoop=1;jettySize=auto;html=1;" edge="1" parent="1" source="oQk5PW6BRJyfj6045QY_-7" target="oQk5PW6BRJyfj6045QY_-9">
          <mxGeometry relative="1" as="geometry" />
        </mxCell>
        <mxCell id="oQk5PW6BRJyfj6045QY_-15" value="" style="rounded=0;orthogonalLoop=1;jettySize=auto;html=1;" edge="1" parent="1" source="oQk5PW6BRJyfj6045QY_-7" target="oQk5PW6BRJyfj6045QY_-11">
          <mxGeometry relative="1" as="geometry" />
        </mxCell>
        <mxCell id="oQk5PW6BRJyfj6045QY_-16" value="" style="rounded=0;orthogonalLoop=1;jettySize=auto;html=1;" edge="1" parent="1" source="oQk5PW6BRJyfj6045QY_-7" target="oQk5PW6BRJyfj6045QY_-13">
          <mxGeometry relative="1" as="geometry" />
        </mxCell>
        <mxCell id="oQk5PW6BRJyfj6045QY_-7" value="A" style="ellipse;whiteSpace=wrap;html=1;" vertex="1" parent="1">
          <mxGeometry x="208" y="1980" width="70" height="40" as="geometry" />
        </mxCell>
        <mxCell id="oQk5PW6BRJyfj6045QY_-18" value="" style="rounded=0;orthogonalLoop=1;jettySize=auto;html=1;" edge="1" parent="1" source="oQk5PW6BRJyfj6045QY_-9" target="oQk5PW6BRJyfj6045QY_-17">
          <mxGeometry relative="1" as="geometry" />
        </mxCell>
        <mxCell id="oQk5PW6BRJyfj6045QY_-27" value="" style="rounded=0;orthogonalLoop=1;jettySize=auto;html=1;" edge="1" parent="1" source="oQk5PW6BRJyfj6045QY_-9" target="oQk5PW6BRJyfj6045QY_-24">
          <mxGeometry relative="1" as="geometry" />
        </mxCell>
        <mxCell id="oQk5PW6BRJyfj6045QY_-9" value="A" style="ellipse;whiteSpace=wrap;html=1;" vertex="1" parent="1">
          <mxGeometry x="358" y="1980" width="70" height="40" as="geometry" />
        </mxCell>
        <mxCell id="oQk5PW6BRJyfj6045QY_-14" value="" style="rounded=0;orthogonalLoop=1;jettySize=auto;html=1;" edge="1" parent="1" source="oQk5PW6BRJyfj6045QY_-11" target="oQk5PW6BRJyfj6045QY_-13">
          <mxGeometry relative="1" as="geometry" />
        </mxCell>
        <mxCell id="oQk5PW6BRJyfj6045QY_-11" value="A2" style="ellipse;whiteSpace=wrap;html=1;" vertex="1" parent="1">
          <mxGeometry x="257" y="2080" width="70" height="40" as="geometry" />
        </mxCell>
        <mxCell id="oQk5PW6BRJyfj6045QY_-28" value="" style="rounded=0;orthogonalLoop=1;jettySize=auto;html=1;" edge="1" parent="1" source="oQk5PW6BRJyfj6045QY_-13" target="oQk5PW6BRJyfj6045QY_-17">
          <mxGeometry relative="1" as="geometry" />
        </mxCell>
        <mxCell id="oQk5PW6BRJyfj6045QY_-13" value="A2" style="ellipse;whiteSpace=wrap;html=1;" vertex="1" parent="1">
          <mxGeometry x="433" y="2080" width="70" height="40" as="geometry" />
        </mxCell>
        <mxCell id="oQk5PW6BRJyfj6045QY_-17" value="A" style="ellipse;whiteSpace=wrap;html=1;" vertex="1" parent="1">
          <mxGeometry x="564" y="1980" width="70" height="40" as="geometry" />
        </mxCell>
        <mxCell id="oQk5PW6BRJyfj6045QY_-19" value="" style="rounded=0;orthogonalLoop=1;jettySize=auto;html=1;" edge="1" parent="1" source="oQk5PW6BRJyfj6045QY_-20" target="oQk5PW6BRJyfj6045QY_-22">
          <mxGeometry relative="1" as="geometry" />
        </mxCell>
        <mxCell id="oQk5PW6BRJyfj6045QY_-20" value="A" style="ellipse;whiteSpace=wrap;html=1;" vertex="1" parent="1">
          <mxGeometry x="24" y="1880" width="70" height="40" as="geometry" />
        </mxCell>
        <mxCell id="oQk5PW6BRJyfj6045QY_-21" value="" style="rounded=0;orthogonalLoop=1;jettySize=auto;html=1;" edge="1" parent="1" source="oQk5PW6BRJyfj6045QY_-22" target="oQk5PW6BRJyfj6045QY_-24">
          <mxGeometry relative="1" as="geometry" />
        </mxCell>
        <mxCell id="oQk5PW6BRJyfj6045QY_-26" value="" style="rounded=0;orthogonalLoop=1;jettySize=auto;html=1;" edge="1" parent="1" source="oQk5PW6BRJyfj6045QY_-22" target="oQk5PW6BRJyfj6045QY_-7">
          <mxGeometry relative="1" as="geometry" />
        </mxCell>
        <mxCell id="oQk5PW6BRJyfj6045QY_-22" value="A" style="ellipse;whiteSpace=wrap;html=1;" vertex="1" parent="1">
          <mxGeometry x="174" y="1880" width="70" height="40" as="geometry" />
        </mxCell>
        <mxCell id="oQk5PW6BRJyfj6045QY_-23" value="" style="rounded=0;orthogonalLoop=1;jettySize=auto;html=1;" edge="1" parent="1" source="oQk5PW6BRJyfj6045QY_-24" target="oQk5PW6BRJyfj6045QY_-25">
          <mxGeometry relative="1" as="geometry" />
        </mxCell>
        <mxCell id="oQk5PW6BRJyfj6045QY_-24" value="A" style="ellipse;whiteSpace=wrap;html=1;" vertex="1" parent="1">
          <mxGeometry x="464" y="1880" width="70" height="40" as="geometry" />
        </mxCell>
        <mxCell id="oQk5PW6BRJyfj6045QY_-25" value="A" style="ellipse;whiteSpace=wrap;html=1;" vertex="1" parent="1">
          <mxGeometry x="614" y="1880" width="70" height="40" as="geometry" />
        </mxCell>
        <mxCell id="oQk5PW6BRJyfj6045QY_-29" value="" style="rounded=0;orthogonalLoop=1;jettySize=auto;html=1;" edge="1" parent="1" source="oQk5PW6BRJyfj6045QY_-30" target="oQk5PW6BRJyfj6045QY_-32">
          <mxGeometry relative="1" as="geometry" />
        </mxCell>
        <mxCell id="oQk5PW6BRJyfj6045QY_-30" value="B" style="ellipse;whiteSpace=wrap;html=1;" vertex="1" parent="1">
          <mxGeometry x="108" y="1510" width="70" height="40" as="geometry" />
        </mxCell>
        <mxCell id="oQk5PW6BRJyfj6045QY_-31" value="" style="rounded=0;orthogonalLoop=1;jettySize=auto;html=1;" edge="1" parent="1" source="oQk5PW6BRJyfj6045QY_-32" target="oQk5PW6BRJyfj6045QY_-34">
          <mxGeometry relative="1" as="geometry" />
        </mxCell>
        <mxCell id="oQk5PW6BRJyfj6045QY_-32" value="D" style="ellipse;whiteSpace=wrap;html=1;" vertex="1" parent="1">
          <mxGeometry x="258" y="1510" width="70" height="40" as="geometry" />
        </mxCell>
        <mxCell id="oQk5PW6BRJyfj6045QY_-33" value="" style="rounded=0;orthogonalLoop=1;jettySize=auto;html=1;" edge="1" parent="1" source="oQk5PW6BRJyfj6045QY_-34" target="oQk5PW6BRJyfj6045QY_-40">
          <mxGeometry relative="1" as="geometry" />
        </mxCell>
        <mxCell id="oQk5PW6BRJyfj6045QY_-34" value="E" style="ellipse;whiteSpace=wrap;html=1;" vertex="1" parent="1">
          <mxGeometry x="408" y="1510" width="70" height="40" as="geometry" />
        </mxCell>
        <mxCell id="oQk5PW6BRJyfj6045QY_-35" value="" style="rounded=0;orthogonalLoop=1;jettySize=auto;html=1;" edge="1" parent="1" source="oQk5PW6BRJyfj6045QY_-36" target="oQk5PW6BRJyfj6045QY_-39">
          <mxGeometry relative="1" as="geometry" />
        </mxCell>
        <mxCell id="oQk5PW6BRJyfj6045QY_-36" value="A&lt;div&gt;weight[a]&lt;/div&gt;" style="ellipse;whiteSpace=wrap;html=1;" vertex="1" parent="1">
          <mxGeometry x="74" y="1410" width="70" height="40" as="geometry" />
        </mxCell>
        <mxCell id="oQk5PW6BRJyfj6045QY_-37" value="" style="rounded=0;orthogonalLoop=1;jettySize=auto;html=1;" edge="1" parent="1" source="oQk5PW6BRJyfj6045QY_-39" target="oQk5PW6BRJyfj6045QY_-40">
          <mxGeometry relative="1" as="geometry" />
        </mxCell>
        <mxCell id="oQk5PW6BRJyfj6045QY_-38" value="" style="rounded=0;orthogonalLoop=1;jettySize=auto;html=1;" edge="1" parent="1" source="oQk5PW6BRJyfj6045QY_-39" target="oQk5PW6BRJyfj6045QY_-32">
          <mxGeometry relative="1" as="geometry" />
        </mxCell>
        <mxCell id="oQk5PW6BRJyfj6045QY_-39" value="C" style="ellipse;whiteSpace=wrap;html=1;" vertex="1" parent="1">
          <mxGeometry x="224" y="1410" width="70" height="40" as="geometry" />
        </mxCell>
        <mxCell id="oQk5PW6BRJyfj6045QY_-40" value="F" style="ellipse;whiteSpace=wrap;html=1;" vertex="1" parent="1">
          <mxGeometry x="514" y="1410" width="70" height="40" as="geometry" />
        </mxCell>
        <mxCell id="oQk5PW6BRJyfj6045QY_-41" value="1. 将任务模型转化为事件模型, 方法是将节点拆分为两个时刻，将权重赋值到边上" style="text;html=1;align=center;verticalAlign=middle;resizable=0;points=[];autosize=1;strokeColor=none;fillColor=none;" vertex="1" parent="1">
          <mxGeometry x="28" y="30" width="450" height="30" as="geometry" />
        </mxCell>
        <mxCell id="oQk5PW6BRJyfj6045QY_-42" value="" style="rounded=0;orthogonalLoop=1;jettySize=auto;html=1;" edge="1" parent="1" source="oQk5PW6BRJyfj6045QY_-43" target="oQk5PW6BRJyfj6045QY_-45">
          <mxGeometry relative="1" as="geometry" />
        </mxCell>
        <mxCell id="oQk5PW6BRJyfj6045QY_-43" value="Be" style="ellipse;whiteSpace=wrap;html=1;" vertex="1" parent="1">
          <mxGeometry x="118" y="1705" width="70" height="40" as="geometry" />
        </mxCell>
        <mxCell id="oQk5PW6BRJyfj6045QY_-44" value="" style="rounded=0;orthogonalLoop=1;jettySize=auto;html=1;" edge="1" parent="1" source="oQk5PW6BRJyfj6045QY_-60" target="oQk5PW6BRJyfj6045QY_-47">
          <mxGeometry relative="1" as="geometry" />
        </mxCell>
        <mxCell id="oQk5PW6BRJyfj6045QY_-45" value="Ds" style="ellipse;whiteSpace=wrap;html=1;" vertex="1" parent="1">
          <mxGeometry x="268" y="1705" width="70" height="40" as="geometry" />
        </mxCell>
        <mxCell id="oQk5PW6BRJyfj6045QY_-46" value="" style="rounded=0;orthogonalLoop=1;jettySize=auto;html=1;" edge="1" parent="1" source="oQk5PW6BRJyfj6045QY_-47" target="oQk5PW6BRJyfj6045QY_-53">
          <mxGeometry relative="1" as="geometry" />
        </mxCell>
        <mxCell id="oQk5PW6BRJyfj6045QY_-47" value="Ee" style="ellipse;whiteSpace=wrap;html=1;" vertex="1" parent="1">
          <mxGeometry x="614" y="1700" width="70" height="40" as="geometry" />
        </mxCell>
        <mxCell id="oQk5PW6BRJyfj6045QY_-48" value="" style="rounded=0;orthogonalLoop=1;jettySize=auto;html=1;" edge="1" parent="1" source="oQk5PW6BRJyfj6045QY_-56" target="oQk5PW6BRJyfj6045QY_-52">
          <mxGeometry relative="1" as="geometry" />
        </mxCell>
        <mxCell id="oQk5PW6BRJyfj6045QY_-49" value="As" style="ellipse;whiteSpace=wrap;html=1;" vertex="1" parent="1">
          <mxGeometry x="-10" y="1600" width="70" height="40" as="geometry" />
        </mxCell>
        <mxCell id="oQk5PW6BRJyfj6045QY_-50" value="" style="rounded=0;orthogonalLoop=1;jettySize=auto;html=1;" edge="1" parent="1" source="oQk5PW6BRJyfj6045QY_-52" target="oQk5PW6BRJyfj6045QY_-53">
          <mxGeometry relative="1" as="geometry" />
        </mxCell>
        <mxCell id="oQk5PW6BRJyfj6045QY_-51" value="" style="rounded=0;orthogonalLoop=1;jettySize=auto;html=1;" edge="1" parent="1" source="oQk5PW6BRJyfj6045QY_-52" target="oQk5PW6BRJyfj6045QY_-45">
          <mxGeometry relative="1" as="geometry" />
        </mxCell>
        <mxCell id="oQk5PW6BRJyfj6045QY_-52" value="Ce" style="ellipse;whiteSpace=wrap;html=1;" vertex="1" parent="1">
          <mxGeometry x="348" y="1605" width="70" height="40" as="geometry" />
        </mxCell>
        <mxCell id="oQk5PW6BRJyfj6045QY_-65" value="" style="edgeStyle=orthogonalEdgeStyle;rounded=0;orthogonalLoop=1;jettySize=auto;html=1;" edge="1" parent="1" source="oQk5PW6BRJyfj6045QY_-53" target="oQk5PW6BRJyfj6045QY_-64">
          <mxGeometry relative="1" as="geometry" />
        </mxCell>
        <mxCell id="oQk5PW6BRJyfj6045QY_-53" value="Fs" style="ellipse;whiteSpace=wrap;html=1;" vertex="1" parent="1">
          <mxGeometry x="614" y="1605" width="70" height="40" as="geometry" />
        </mxCell>
        <mxCell id="oQk5PW6BRJyfj6045QY_-55" value="" style="rounded=0;orthogonalLoop=1;jettySize=auto;html=1;" edge="1" parent="1" source="oQk5PW6BRJyfj6045QY_-49" target="oQk5PW6BRJyfj6045QY_-54">
          <mxGeometry relative="1" as="geometry">
            <mxPoint x="154" y="1625" as="sourcePoint" />
            <mxPoint x="234" y="1625" as="targetPoint" />
          </mxGeometry>
        </mxCell>
        <mxCell id="oQk5PW6BRJyfj6045QY_-66" value="&lt;span style=&quot;font-size: 12px; text-wrap: wrap; background-color: rgb(251, 251, 251);&quot;&gt;weight[a]&lt;/span&gt;" style="edgeLabel;html=1;align=center;verticalAlign=middle;resizable=0;points=[];" vertex="1" connectable="0" parent="oQk5PW6BRJyfj6045QY_-55">
          <mxGeometry x="-0.3514" y="2" relative="1" as="geometry">
            <mxPoint as="offset" />
          </mxGeometry>
        </mxCell>
        <mxCell id="oQk5PW6BRJyfj6045QY_-54" value="Ae" style="ellipse;whiteSpace=wrap;html=1;" vertex="1" parent="1">
          <mxGeometry x="144" y="1600" width="70" height="40" as="geometry" />
        </mxCell>
        <mxCell id="oQk5PW6BRJyfj6045QY_-57" value="" style="rounded=0;orthogonalLoop=1;jettySize=auto;html=1;" edge="1" parent="1" source="oQk5PW6BRJyfj6045QY_-54" target="oQk5PW6BRJyfj6045QY_-56">
          <mxGeometry relative="1" as="geometry">
            <mxPoint x="214" y="1621" as="sourcePoint" />
            <mxPoint x="314" y="1624" as="targetPoint" />
          </mxGeometry>
        </mxCell>
        <mxCell id="oQk5PW6BRJyfj6045QY_-56" value="Cs" style="ellipse;whiteSpace=wrap;html=1;" vertex="1" parent="1">
          <mxGeometry x="254" y="1600" width="70" height="40" as="geometry" />
        </mxCell>
        <mxCell id="oQk5PW6BRJyfj6045QY_-59" value="Bs" style="ellipse;whiteSpace=wrap;html=1;" vertex="1" parent="1">
          <mxGeometry x="24" y="1705" width="70" height="40" as="geometry" />
        </mxCell>
        <mxCell id="oQk5PW6BRJyfj6045QY_-61" value="" style="rounded=0;orthogonalLoop=1;jettySize=auto;html=1;" edge="1" parent="1" source="oQk5PW6BRJyfj6045QY_-62" target="oQk5PW6BRJyfj6045QY_-60">
          <mxGeometry relative="1" as="geometry">
            <mxPoint x="338" y="1725" as="sourcePoint" />
            <mxPoint x="418" y="1725" as="targetPoint" />
          </mxGeometry>
        </mxCell>
        <mxCell id="oQk5PW6BRJyfj6045QY_-60" value="Es" style="ellipse;whiteSpace=wrap;html=1;" vertex="1" parent="1">
          <mxGeometry x="503" y="1700" width="70" height="40" as="geometry" />
        </mxCell>
        <mxCell id="oQk5PW6BRJyfj6045QY_-63" value="" style="rounded=0;orthogonalLoop=1;jettySize=auto;html=1;" edge="1" parent="1" source="oQk5PW6BRJyfj6045QY_-45" target="oQk5PW6BRJyfj6045QY_-62">
          <mxGeometry relative="1" as="geometry">
            <mxPoint x="338" y="1725" as="sourcePoint" />
            <mxPoint x="408" y="1725" as="targetPoint" />
          </mxGeometry>
        </mxCell>
        <mxCell id="oQk5PW6BRJyfj6045QY_-62" value="De" style="ellipse;whiteSpace=wrap;html=1;" vertex="1" parent="1">
          <mxGeometry x="394" y="1700" width="70" height="40" as="geometry" />
        </mxCell>
        <mxCell id="oQk5PW6BRJyfj6045QY_-64" value="Fe" style="ellipse;whiteSpace=wrap;html=1;" vertex="1" parent="1">
          <mxGeometry x="724" y="1605" width="70" height="40" as="geometry" />
        </mxCell>
        <mxCell id="oQk5PW6BRJyfj6045QY_-78" value="" style="rounded=0;orthogonalLoop=1;jettySize=auto;html=1;" edge="1" parent="1" source="oQk5PW6BRJyfj6045QY_-67" target="oQk5PW6BRJyfj6045QY_-72">
          <mxGeometry relative="1" as="geometry" />
        </mxCell>
        <mxCell id="oQk5PW6BRJyfj6045QY_-109" value="0" style="edgeLabel;html=1;align=center;verticalAlign=middle;resizable=0;points=[];" vertex="1" connectable="0" parent="oQk5PW6BRJyfj6045QY_-78">
          <mxGeometry x="0.2656" y="4" relative="1" as="geometry">
            <mxPoint as="offset" />
          </mxGeometry>
        </mxCell>
        <mxCell id="oQk5PW6BRJyfj6045QY_-79" value="" style="rounded=0;orthogonalLoop=1;jettySize=auto;html=1;" edge="1" parent="1" source="oQk5PW6BRJyfj6045QY_-67" target="oQk5PW6BRJyfj6045QY_-74">
          <mxGeometry relative="1" as="geometry" />
        </mxCell>
        <mxCell id="oQk5PW6BRJyfj6045QY_-110" value="0" style="edgeLabel;html=1;align=center;verticalAlign=middle;resizable=0;points=[];" vertex="1" connectable="0" parent="oQk5PW6BRJyfj6045QY_-79">
          <mxGeometry x="0.0783" y="6" relative="1" as="geometry">
            <mxPoint as="offset" />
          </mxGeometry>
        </mxCell>
        <mxCell id="oQk5PW6BRJyfj6045QY_-67" value="A&lt;div&gt;weight[a]&lt;/div&gt;" style="ellipse;whiteSpace=wrap;html=1;fillColor=#FF9933;" vertex="1" parent="1">
          <mxGeometry x="53" y="120" width="70" height="40" as="geometry" />
        </mxCell>
        <mxCell id="oQk5PW6BRJyfj6045QY_-72" value="&lt;div&gt;B&lt;/div&gt;&lt;div&gt;weight[b]&lt;/div&gt;" style="ellipse;whiteSpace=wrap;html=1;" vertex="1" parent="1">
          <mxGeometry x="207" y="80" width="70" height="40" as="geometry" />
        </mxCell>
        <mxCell id="oQk5PW6BRJyfj6045QY_-74" value="&lt;div&gt;C&lt;/div&gt;&lt;div&gt;weight[c]&lt;/div&gt;" style="ellipse;whiteSpace=wrap;html=1;" vertex="1" parent="1">
          <mxGeometry x="203" y="160" width="70" height="40" as="geometry" />
        </mxCell>
        <mxCell id="oQk5PW6BRJyfj6045QY_-75" value="&lt;div&gt;D&lt;/div&gt;&lt;div&gt;weight[d]&lt;/div&gt;" style="ellipse;whiteSpace=wrap;html=1;fillColor=#FF9933;" vertex="1" parent="1">
          <mxGeometry x="193" y="280" width="70" height="40" as="geometry" />
        </mxCell>
        <mxCell id="oQk5PW6BRJyfj6045QY_-81" value="" style="rounded=0;orthogonalLoop=1;jettySize=auto;html=1;" edge="1" parent="1" source="oQk5PW6BRJyfj6045QY_-76" target="oQk5PW6BRJyfj6045QY_-75">
          <mxGeometry relative="1" as="geometry" />
        </mxCell>
        <mxCell id="oQk5PW6BRJyfj6045QY_-76" value="&lt;div&gt;B&lt;/div&gt;&lt;div&gt;weight[b]&lt;/div&gt;" style="ellipse;whiteSpace=wrap;html=1;" vertex="1" parent="1">
          <mxGeometry x="53" y="250" width="70" height="40" as="geometry" />
        </mxCell>
        <mxCell id="oQk5PW6BRJyfj6045QY_-80" value="" style="rounded=0;orthogonalLoop=1;jettySize=auto;html=1;" edge="1" parent="1" source="oQk5PW6BRJyfj6045QY_-77" target="oQk5PW6BRJyfj6045QY_-75">
          <mxGeometry relative="1" as="geometry" />
        </mxCell>
        <mxCell id="oQk5PW6BRJyfj6045QY_-77" value="&lt;div&gt;C&lt;/div&gt;&lt;div&gt;weight[c]&lt;/div&gt;" style="ellipse;whiteSpace=wrap;html=1;" vertex="1" parent="1">
          <mxGeometry x="53" y="330" width="70" height="40" as="geometry" />
        </mxCell>
        <mxCell id="oQk5PW6BRJyfj6045QY_-82" value="" style="rounded=0;orthogonalLoop=1;jettySize=auto;html=1;" edge="1" parent="1" source="oQk5PW6BRJyfj6045QY_-84" target="oQk5PW6BRJyfj6045QY_-85">
          <mxGeometry relative="1" as="geometry" />
        </mxCell>
        <mxCell id="oQk5PW6BRJyfj6045QY_-111" value="0" style="edgeLabel;html=1;align=center;verticalAlign=middle;resizable=0;points=[];" vertex="1" connectable="0" parent="oQk5PW6BRJyfj6045QY_-82">
          <mxGeometry x="0.1356" y="5" relative="1" as="geometry">
            <mxPoint as="offset" />
          </mxGeometry>
        </mxCell>
        <mxCell id="oQk5PW6BRJyfj6045QY_-83" value="" style="rounded=0;orthogonalLoop=1;jettySize=auto;html=1;" edge="1" parent="1" source="oQk5PW6BRJyfj6045QY_-84" target="oQk5PW6BRJyfj6045QY_-86">
          <mxGeometry relative="1" as="geometry" />
        </mxCell>
        <mxCell id="oQk5PW6BRJyfj6045QY_-112" value="0" style="edgeLabel;html=1;align=center;verticalAlign=middle;resizable=0;points=[];" vertex="1" connectable="0" parent="oQk5PW6BRJyfj6045QY_-83">
          <mxGeometry x="0.0294" y="7" relative="1" as="geometry">
            <mxPoint as="offset" />
          </mxGeometry>
        </mxCell>
        <mxCell id="oQk5PW6BRJyfj6045QY_-84" value="Ae" style="ellipse;whiteSpace=wrap;html=1;fillColor=#FF9933;" vertex="1" parent="1">
          <mxGeometry x="500" y="120" width="70" height="40" as="geometry" />
        </mxCell>
        <mxCell id="oQk5PW6BRJyfj6045QY_-85" value="&lt;div&gt;B&lt;/div&gt;&lt;div&gt;weight[b]&lt;/div&gt;" style="ellipse;whiteSpace=wrap;html=1;" vertex="1" parent="1">
          <mxGeometry x="640" y="80" width="70" height="40" as="geometry" />
        </mxCell>
        <mxCell id="oQk5PW6BRJyfj6045QY_-86" value="&lt;div&gt;C&lt;/div&gt;&lt;div&gt;weight[c]&lt;/div&gt;" style="ellipse;whiteSpace=wrap;html=1;" vertex="1" parent="1">
          <mxGeometry x="640" y="160" width="70" height="40" as="geometry" />
        </mxCell>
        <mxCell id="oQk5PW6BRJyfj6045QY_-92" value="As" style="ellipse;whiteSpace=wrap;html=1;" vertex="1" parent="1">
          <mxGeometry x="360" y="120" width="70" height="40" as="geometry" />
        </mxCell>
        <mxCell id="oQk5PW6BRJyfj6045QY_-93" value="" style="rounded=0;orthogonalLoop=1;jettySize=auto;html=1;entryX=0;entryY=0.5;entryDx=0;entryDy=0;" edge="1" parent="1" source="oQk5PW6BRJyfj6045QY_-92" target="oQk5PW6BRJyfj6045QY_-84">
          <mxGeometry relative="1" as="geometry">
            <mxPoint x="551" y="265" as="sourcePoint" />
            <mxPoint x="631" y="265" as="targetPoint" />
          </mxGeometry>
        </mxCell>
        <mxCell id="oQk5PW6BRJyfj6045QY_-94" value="&lt;span style=&quot;font-size: 12px; text-wrap: wrap; background-color: rgb(251, 251, 251);&quot;&gt;weight[a]&lt;/span&gt;" style="edgeLabel;html=1;align=center;verticalAlign=middle;resizable=0;points=[];" vertex="1" connectable="0" parent="oQk5PW6BRJyfj6045QY_-93">
          <mxGeometry x="-0.3514" y="2" relative="1" as="geometry">
            <mxPoint as="offset" />
          </mxGeometry>
        </mxCell>
        <mxCell id="oQk5PW6BRJyfj6045QY_-108" value="" style="edgeStyle=orthogonalEdgeStyle;rounded=0;orthogonalLoop=1;jettySize=auto;html=1;" edge="1" parent="1" source="oQk5PW6BRJyfj6045QY_-102" target="oQk5PW6BRJyfj6045QY_-107">
          <mxGeometry relative="1" as="geometry" />
        </mxCell>
        <mxCell id="oQk5PW6BRJyfj6045QY_-113" value="&lt;span style=&quot;font-size: 12px; text-wrap: wrap; background-color: rgb(251, 251, 251);&quot;&gt;weight[d]&lt;/span&gt;" style="edgeLabel;html=1;align=center;verticalAlign=middle;resizable=0;points=[];" vertex="1" connectable="0" parent="oQk5PW6BRJyfj6045QY_-108">
          <mxGeometry x="-0.0141" relative="1" as="geometry">
            <mxPoint as="offset" />
          </mxGeometry>
        </mxCell>
        <mxCell id="oQk5PW6BRJyfj6045QY_-102" value="&lt;div&gt;Ds&lt;/div&gt;" style="ellipse;whiteSpace=wrap;html=1;fillColor=#FF9933;" vertex="1" parent="1">
          <mxGeometry x="513" y="290" width="70" height="40" as="geometry" />
        </mxCell>
        <mxCell id="oQk5PW6BRJyfj6045QY_-103" value="" style="rounded=0;orthogonalLoop=1;jettySize=auto;html=1;" edge="1" parent="1" source="oQk5PW6BRJyfj6045QY_-104" target="oQk5PW6BRJyfj6045QY_-102">
          <mxGeometry relative="1" as="geometry" />
        </mxCell>
        <mxCell id="oQk5PW6BRJyfj6045QY_-104" value="&lt;div&gt;B&lt;/div&gt;&lt;div&gt;weight[b]&lt;/div&gt;" style="ellipse;whiteSpace=wrap;html=1;" vertex="1" parent="1">
          <mxGeometry x="401" y="260" width="70" height="40" as="geometry" />
        </mxCell>
        <mxCell id="oQk5PW6BRJyfj6045QY_-105" value="" style="rounded=0;orthogonalLoop=1;jettySize=auto;html=1;" edge="1" parent="1" source="oQk5PW6BRJyfj6045QY_-106" target="oQk5PW6BRJyfj6045QY_-102">
          <mxGeometry relative="1" as="geometry" />
        </mxCell>
        <mxCell id="oQk5PW6BRJyfj6045QY_-106" value="&lt;div&gt;C&lt;/div&gt;&lt;div&gt;weight[c]&lt;/div&gt;" style="ellipse;whiteSpace=wrap;html=1;" vertex="1" parent="1">
          <mxGeometry x="401" y="320" width="70" height="40" as="geometry" />
        </mxCell>
        <mxCell id="oQk5PW6BRJyfj6045QY_-107" value="&lt;div&gt;De&lt;/div&gt;" style="ellipse;whiteSpace=wrap;html=1;fillColor=#FF9933;" vertex="1" parent="1">
          <mxGeometry x="654" y="290" width="70" height="40" as="geometry" />
        </mxCell>
      </root>
    </mxGraphModel>
  </diagram>
</mxfile>
